<svg xmlns="http://www.w3.org/2000/svg" xmlns:xlink="http://www.w3.org/1999/xlink" width="24" height="24"><defs><linearGradient id="b"><stop offset="0" stop-color="#cbc4c4"/><stop offset="1" stop-color="#908383"/></linearGradient><linearGradient id="a"><stop offset="0" stop-color="#c6c4c4"/><stop offset="1" stop-color="#f1ebea" stop-opacity=".941"/></linearGradient><linearGradient xlink:href="#a" id="c" x1="-13.222" y1="22.804" x2="-13.222" y2=".091" gradientUnits="userSpaceOnUse" gradientTransform="matrix(1.04348 0 0 1.04348 25.043 0)"/><linearGradient xlink:href="#b" id="d" x1="-15.332" y1="4.531" x2="-6.758" y2="22.529" gradientUnits="userSpaceOnUse" gradientTransform="matrix(1.04348 0 0 1.04348 25.043 0)"/></defs><path fill="url(#c)" d="M0 0h24v24H0z"/><path d="M11.794 3.993a4.16 4.16 0 1 0 0 8.318 4.16 4.16 0 0 0 0-8.318zm6.249 3.57c.145 5.229-1.534 6.497-2.417 6.806a6.617 6.617 0 0 0-3.834-1.216c-3.68 0-6.644 3.17-6.644 6.85V24h13.288v-3.997c0-.226-.013-.448-.034-.668 3.221-5.298 2.386-11.773 2.386-11.773z" fill="url(#d)" fill-rule="evenodd"/></svg>